<svg width="320" height="320" viewBox="0 0 320 320" fill="none" xmlns="http://www.w3.org/2000/svg">
<rect width="320" height="320" rx="160" fill="#94C199"/>
<rect x="39.335" y="39.3355" width="240.66" height="240.66" rx="120.33" stroke="#0E191A" stroke-width="12.67"/>
<path d="M182.037 233.628H181.427C174.241 233.628 167.706 229.462 164.669 222.948L124.589 136.922C123.477 134.533 121.077 132.999 118.447 132.999H114.173C113.947 132.999 113.745 133.141 113.667 133.354L81.5809 221.469C78.9234 228.77 71.9814 233.642 64.2122 233.642H57.5048C57.2717 233.642 57.1092 233.411 57.1881 233.191L78.0574 175.163C78.1214 174.985 78.2903 174.866 78.4796 174.866H87.4518C90.2992 174.866 92.8482 173.088 93.8244 170.401L120.074 98.285C122.732 90.9702 129.674 86.1118 137.443 86.1118C144.629 86.1118 151.164 90.2781 154.201 96.8057L193.928 182.181C195.04 184.569 197.44 186.103 200.07 186.103H205.51C205.736 186.103 205.939 185.961 206.016 185.748L237.858 98.285C240.516 90.9838 247.458 86.1118 255.227 86.1118H262.244C262.478 86.1118 262.641 86.344 262.561 86.5635L241.436 144.595C241.372 144.771 241.205 144.889 241.018 144.89L232.123 144.956C229.289 144.956 226.754 146.733 225.778 149.407L199.392 221.496C196.721 228.783 189.793 233.628 182.037 233.628Z" fill="#0E191A"/>
</svg>
